Coordinates
version=1
nRows=14
nColumns=40
inDegrees=yes

Units are S.I. units (second, meters, Newtons, ...)
Angles are in degrees.

endheader
time	pelvis_tilt	pelvis_list	pelvis_rotation	pelvis_tx	pelvis_ty	pelvis_tz	hip_flexion_r	hip_adduction_r	hip_rotation_r	knee_angle_r	knee_angle_r_beta	ankle_angle_r	subtalar_angle_r	mtp_angle_r	hip_flexion_l	hip_adduction_l	hip_rotation_l	knee_angle_l	knee_angle_l_beta	ankle_angle_l	subtalar_angle_l	mtp_angle_l	lumbar_extension	lumbar_bending	lumbar_rotation	arm_flex_r	arm_add_r	arm_rot_r	elbow_flex_r	pro_sup_r	wrist_flex_r	wrist_dev_r	arm_flex_l	arm_add_l	arm_rot_l	elbow_flex_l	pro_sup_l	wrist_flex_l	wrist_dev_l
      0.00000000	     -3.05196873	     -3.80669780	      1.78117754	     -1.38148612	      0.89309641	     -1.02132277	     25.22668880	      2.50880890	    -13.27209554	    -26.74309613	     -0.46675508	     -0.50510851	     -9.42217096	      2.32782469	     -2.41973573	      2.36786427	     13.23977315	    -10.73145741	     -0.18729927	     13.14336523	     -0.10217872	     -1.53901041	     -8.75337672	      7.13835754	     -5.26240987	      4.56812895	    -13.42884923	     13.89265907	     11.76637534	     89.95437384	      0.00000000	      0.00000000	     16.13097775	     13.98231798	    -16.62912185	     23.91698504	     89.95437384	      0.00000000	      0.00000000
      0.01000000	     -3.14847536	     -3.96267029	      1.58058055	     -1.37739169	      0.89242883	     -1.02207263	     25.40050160	      2.53741575	    -14.05969247	    -25.30482120	     -0.44165245	     -1.47271136	     -8.77138870	      2.80967444	     -2.50619919	      2.51826871	     13.57983724	    -11.12862319	     -0.19423112	     13.40400931	     -0.35432717	     -1.50134116	     -8.60461394	      7.38877647	     -5.50781044	      4.25825536	    -13.43561388	     13.79200471	     11.80747749	     89.95437384	      0.00000000	      0.00000000	     16.19020560	     13.92439157	    -16.43245712	     24.42161935	     89.95437384	      0.00000000	      0.00000000
      0.02000000	     -3.46000781	     -3.90701329	      1.34161800	     -1.37404023	      0.89152635	     -1.02241938	     25.89343835	      2.44143824	    -14.56272538	    -24.03738752	     -0.41953156	     -2.05374175	     -8.23308460	      2.97113066	     -2.56142143	      2.38783491	     13.59421790	    -10.89337544	     -0.19012527	     13.49432498	     -0.46420872	     -1.48633700	     -8.33349508	      7.37398395	     -5.68056814	      3.95726360	    -13.36937653	     13.62929401	     11.98271469	     89.95437384	      0.00000000	      0.00000000	     16.31292663	     13.97552182	    -16.43297885	     25.00401685	     89.95437384	      0.00000000	      0.00000000
      0.03000000	     -3.68125244	     -3.77243531	      1.04934296	     -1.37051081	      0.89072525	     -1.02264931	     26.33545234	      2.28823933	    -15.11425778	    -22.99764787	     -0.40138468	     -2.22423429	     -7.90907904	      3.03013464	     -2.60722090	      2.21843457	     13.64583373	    -10.82119889	     -0.18886555	     13.54894503	     -0.51420094	     -1.51581479	     -8.12431432	      7.23617935	     -5.65183976	      3.65821930	    -13.27670173	     13.53983280	     11.93938510	     89.95437384	      0.00000000	      0.00000000	     16.54971845	     13.92091510	    -16.44809396	     25.41136436	     89.95437384	      0.00000000	      0.00000000
      0.04000000	     -3.42775945	     -4.17652408	      1.04579788	     -1.36613596	      0.89075649	     -1.02272631	     25.77795943	      2.64559361	    -16.27156258	    -21.20758738	     -0.37014223	     -3.07661098	     -5.53337836	      3.16742374	     -3.29192846	      2.73701032	     13.80512899	    -10.67883772	     -0.18638088	     13.40784685	     -1.15638781	     -1.83061895	     -8.40078104	      7.72944814	     -5.88159573	      3.39797513	    -13.00617035	     11.77049393	     12.05420388	     89.95437384	      0.00000000	      0.00000000	     16.63979958	     13.98146616	    -16.72016638	     26.06747498	     89.95437384	      0.00000000	      0.00000000
      0.05000000	     -3.69075560	     -4.07884889	      0.84665978	     -1.36247810	      0.88995418	     -1.02292513	     26.08386640	      2.60582657	    -16.52632553	    -20.02537922	     -0.34950880	     -3.49957253	     -4.46887529	      3.12018724	     -3.16145048	      2.65269976	     13.99890213	    -10.86947086	     -0.18970805	     13.48431298	     -1.24287522	     -1.96832207	     -8.17282699	      7.66643984	     -5.98171261	      3.09183948	    -12.86904508	     11.53412466	     12.20622339	     89.95437384	      0.00000000	      0.00000000	     16.79185912	     13.91640962	    -16.73481728	     26.47396286	     89.95437384	      0.00000000	      0.00000000
      0.06000000	     -3.47381400	     -4.23013608	      0.72028644	     -1.35778326	      0.88973113	     -1.02300571	     25.76456069	      2.62366808	    -17.90333780	    -19.02443625	     -0.33203905	     -3.56685556	     -1.58157521	      2.44510217	     -3.72378142	      2.90045620	     14.73369417	    -10.99041804	     -0.19181898	     13.34710935	     -2.22772683	     -2.59341635	     -8.37528386	      7.88283873	     -6.02435996	      2.78486088	    -12.67702054	     10.79352999	     12.24124361	     89.95437384	      0.00000000	      0.00000000	     16.80022675	     13.94128529	    -17.05728595	     27.16535563	     89.95437384	      0.00000000	      0.00000000
      0.07000000	     -3.64555934	     -4.20409453	      0.51707575	     -1.35396480	      0.88899277	     -1.02271055	     25.88747367	      2.77921271	    -17.88882601	    -18.02030555	     -0.31451366	     -3.88238836	     -0.65076235	      2.33930809	     -3.76940352	      2.89628032	     14.80556203	    -11.14518624	     -0.19452020	     13.57153090	     -2.19438518	     -2.67743397	     -8.23367897	      7.85304807	     -6.00579881	      2.50453562	    -12.49293169	     10.68345683	     12.36010081	     89.95437384	      0.00000000	      0.00000000	     16.92270379	     13.90701524	    -17.24405570	     27.62700377	     89.95437384	      0.00000000	      0.00000000
      0.08000000	     -3.85904398	     -4.10180868	      0.30353700	     -1.34959567	      0.88805856	     -1.02250405	     26.17352781	      2.77991013	    -18.07318058	    -17.56137969	     -0.30650390	     -3.87608548	     -0.36524004	      2.28974558	     -3.85008764	      2.81683511	     14.86155453	    -11.23751103	     -0.19613157	     13.60561954	     -2.18339625	     -2.69391477	     -7.99176321	      7.77458437	     -6.00431197	      2.22490706	    -12.29027897	     10.66653682	     12.37288945	     89.95437384	      0.00000000	      0.00000000	     16.99677951	     13.76332323	    -17.26909890	     27.91334585	     89.95437384	      0.00000000	      0.00000000
      0.09000000	     -3.46669709	     -4.40810510	      0.35714679	     -1.34484199	      0.88818689	     -1.02233135	     25.31903214	      3.13211470	    -18.68626045	    -16.36258076	     -0.28558091	     -4.39392171	      2.41648234	      1.68791303	     -4.58944668	      3.21970906	     15.17524426	    -11.44498125	     -0.19975261	     13.79558156	     -2.38187356	     -2.72653328	     -8.41985619	      8.15020321	     -6.03204448	      1.93609965	    -12.09858957	     10.01784737	     12.58992443	     89.95437384	      0.00000000	      0.00000000	     17.17315659	     13.69395832	    -17.89789351	     28.31415692	     89.95437384	      0.00000000	      0.00000000
      0.10000000	     -3.66757512	     -4.25965180	      0.43071403	     -1.34082022	      0.88722192	     -1.02201686	     25.61764331	      3.00763947	    -18.59849608	    -16.35982530	     -0.28553282	     -4.38667057	      2.47207494	      1.64070153	     -4.54462235	      3.13127463	     15.09381855	    -11.65129957	     -0.20335354	     13.75545939	     -2.37435799	     -2.71223552	     -8.23234786	      7.99024451	     -6.18066843	      1.65417206	    -11.83465687	     10.01408456	     12.73364437	     89.95437384	      0.00000000	      0.00000000	     17.29645117	     13.56463831	    -17.87928620	     28.63548814	     89.95437384	      0.00000000	      0.00000000
      0.11000000	     -3.83710718	     -4.25805356	      0.20559737	     -1.33513320	      0.88627260	     -1.02193866	     25.56334153	      3.09391951	    -18.48183608	    -16.12788187	     -0.28148464	     -4.74615507	      3.28508561	      1.45700660	     -4.88119588	      3.13333364	     14.93171439	    -11.48017660	     -0.20036688	     13.92555649	     -2.72939002	     -2.83146427	     -7.87974343	      8.07867834	     -6.23107538	      1.44698870	    -11.65527668	      9.86231776	     12.62558069	     89.95437384	      0.00000000	      0.00000000	     17.03059898	     13.39528694	    -18.02783642	     28.97642562	     89.95437384	      0.00000000	      0.00000000
      0.12000000	     -3.94546800	     -4.08773011	      0.31848938	     -1.33074808	      0.88542166	     -1.02163581	     25.67913153	      2.91682937	    -18.27289159	    -16.45774605	     -0.28724186	     -4.82918608	      3.21153198	      1.42515300	     -4.87104534	      3.05319708	     14.83660264	    -11.89146781	     -0.20754527	     13.72230446	     -2.64670995	     -2.79489773	     -7.74829235	      7.90120511	     -6.30015173	      1.09912085	    -11.40130871	      9.85400399	     12.90786890	     89.95437384	      0.00000000	      0.00000000	     17.10133460	     13.19542200	    -17.98612599	     29.33423026	     89.95437384	      0.00000000	      0.00000000
      0.13000000	     -3.28747808	     -3.84161995	      0.30510998	     -1.32456601	      0.88565802	     -1.02160011	     24.68387120	      2.56446665	    -18.77820292	    -16.70318257	     -0.29152553	     -5.66790560	      3.72201808	      1.14171753	     -6.08856712	      2.80157630	     14.98140125	    -11.84017984	     -0.20665012	     13.84164416	     -2.80887947	     -2.81432820	     -8.30148833	      7.67874297	     -6.29231213	      0.95380739	    -11.14329353	      9.60612159	     12.77676825	     89.95437384	      0.00000000	      0.00000000	     17.17196752	     13.09215970	    -18.81208725	     29.40909057	     89.95437384	      0.00000000	      0.00000000
